/* XPM */
static char * pinna_xpm[] = {
"48 48 226 2",
"  	c None",
". 	c #FFFFFF",
"+ 	c #FAFAFA",
"@ 	c #FBFBFB",
"# 	c #FEFEFE",
"$ 	c #F7F7F7",
"% 	c #B4B4B4",
"& 	c #939393",
"* 	c #D2D2D2",
"= 	c #FDFDFD",
"- 	c #F8F8F8",
"; 	c #929292",
"> 	c #121212",
", 	c #404040",
"' 	c #D8D8D8",
") 	c #909090",
"! 	c #303030",
"~ 	c #323232",
"{ 	c #555555",
"] 	c #A1A1A1",
"^ 	c #EEEEEE",
"/ 	c #989898",
"( 	c #4F4F4F",
"_ 	c #2D2D2D",
": 	c #2A2A2A",
"< 	c #393939",
"[ 	c #1D1D1D",
"} 	c #C2C2C2",
"| 	c #FCFCFC",
"1 	c #C8C8C8",
"2 	c #161616",
"3 	c #111111",
"4 	c #171717",
"5 	c #181818",
"6 	c #000000",
"7 	c #010101",
"8 	c #4C4C4C",
"9 	c #CFCFCF",
"0 	c #BEBEBE",
"a 	c #252525",
"b 	c #030303",
"c 	c #020202",
"d 	c #060606",
"e 	c #787878",
"f 	c #F4F4F4",
"g 	c #4A4A4A",
"h 	c #3F3F3F",
"i 	c #DFDFDF",
"j 	c #F9F9F9",
"k 	c #F5F5F5",
"l 	c #7D7D7D",
"m 	c #050505",
"n 	c #040404",
"o 	c #E3E3E3",
"p 	c #D6D6D6",
"q 	c #C6C6C6",
"r 	c #BCBCBC",
"s 	c #BDBDBD",
"t 	c #BBBBBB",
"u 	c #C4C4C4",
"v 	c #C1C1C1",
"w 	c #BABABA",
"x 	c #D1D1D1",
"y 	c #7A7A7A",
"z 	c #101010",
"A 	c #272727",
"B 	c #232323",
"C 	c #5C5C5C",
"D 	c #ECECEC",
"E 	c #EFEFEF",
"F 	c #B8B8B8",
"G 	c #ABABAB",
"H 	c #A6A6A6",
"I 	c #ADADAD",
"J 	c #A7A7A7",
"K 	c #A2A2A2",
"L 	c #A8A8A8",
"M 	c #AAAAAA",
"N 	c #9D9D9D",
"O 	c #E8E8E8",
"P 	c #575757",
"Q 	c #070707",
"R 	c #141414",
"S 	c #202020",
"T 	c #1E1E1E",
"U 	c #EAEAEA",
"V 	c #AEAEAE",
"W 	c #A5A5A5",
"X 	c #A3A3A3",
"Y 	c #9E9E9E",
"Z 	c #C5C5C5",
"` 	c #E4E4E4",
" .	c #494949",
"..	c #1F1F1F",
"+.	c #2E2E2E",
"@.	c #959595",
"#.	c #FFFFFE",
"$.	c #EBEBEB",
"%.	c #151515",
"&.	c #6B6B6B",
"*.	c #E7E7E7",
"=.	c #E5E5E5",
"-.	c #999999",
";.	c #9C9C9C",
">.	c #FDFDFC",
",.	c #FDFDF7",
"'.	c #F5F6EE",
").	c #F1F1F1",
"!.	c #656565",
"~.	c #262626",
"{.	c #B6B6B6",
"].	c #E1E1E1",
"^.	c #ACACAC",
"/.	c #9F9F9F",
"(.	c #FCFDEC",
"_.	c #EAEDB5",
":.	c #B7B990",
"<.	c #BFC0BC",
"[.	c #878787",
"}.	c #838383",
"|.	c #B9B9B9",
"1.	c #E9E9E9",
"2.	c #F3F3F3",
"3.	c #6D6D6D",
"4.	c #080808",
"5.	c #242424",
"6.	c #A4A4A4",
"7.	c #F4F7BD",
"8.	c #C8D042",
"9.	c #6F7517",
"0.	c #2E2F20",
"a.	c #131313",
"b.	c #090909",
"c.	c #1B1B1B",
"d.	c #5E5E5E",
"e.	c #C0C0C0",
"f.	c #7F7F7F",
"g.	c #0A0A0A",
"h.	c #1C1C1C",
"i.	c #363636",
"j.	c #464646",
"k.	c #5D5D5D",
"l.	c #AFAFAF",
"m.	c #A9A9A9",
"n.	c #C5C5C4",
"o.	c #E6EB9A",
"p.	c #A8B20E",
"q.	c #6A7100",
"r.	c #151600",
"s.	c #424242",
"t.	c #8C8C8C",
"u.	c #545454",
"v.	c #8D8D8D",
"w.	c #C3C3C2",
"x.	c #B6B88C",
"y.	c #535709",
"z.	c #2B2E00",
"A.	c #020200",
"B.	c #0D0D0D",
"C.	c #5B5B5B",
"D.	c #E2E2E2",
"E.	c #727272",
"F.	c #A0A0A0",
"G.	c #9A9A9A",
"H.	c #B7B7B7",
"I.	c #7C7C7B",
"J.	c #21211E",
"K.	c #050504",
"L.	c #B1B1B1",
"M.	c #F0F0F0",
"N.	c #969696",
"O.	c #9B9B9B",
"P.	c #0F0F0F",
"Q.	c #737373",
"R.	c #F2F2F2",
"S.	c #BFBFBF",
"T.	c #3D3D3D",
"U.	c #414141",
"V.	c #CBCBCB",
"W.	c #2B2B2B",
"X.	c #B2B2B2",
"Y.	c #686868",
"Z.	c #2F2F2F",
"`.	c #222222",
" +	c #313131",
".+	c #767676",
"++	c #B0B0B0",
"@+	c #CECECE",
"#+	c #898989",
"$+	c #E6E6E6",
"%+	c #343434",
"&+	c #8F8F8F",
"*+	c #EDEDED",
"=+	c #D3D3D3",
"-+	c #212121",
";+	c #595959",
">+	c #DCDCDC",
",+	c #D9D9D9",
"'+	c #D7D7D7",
")+	c #DBDBDB",
"!+	c #0C0C0C",
"~+	c #7C7C7C",
"{+	c #F6F6F6",
"]+	c #D4D4D4",
"^+	c #2C2C2C",
"/+	c #C7C7C7",
"(+	c #D1D1D2",
"_+	c #333333",
":+	c #454545",
"<+	c #282828",
"[+	c #3B3B3B",
"}+	c #474747",
"|+	c #848484",
"1+	c #646464",
"2+	c #292929",
"3+	c #D5D5D5",
"4+	c #D0D0D0",
"5+	c #B5B5B5",
"6+	c #CCCCCC",
"7+	c #DDDDDD",
"8+	c #CACACA",
"9+	c #535353",
"0+	c #484848",
"a+	c #828282",
"b+	c #818181",
"c+	c #CDCDCD",
". . . . . . . . . . . . . . . . . . . . . . . . . . . . . . . . . . . . . . . . . . . . . . . . ",
". . . . . . . . . . . . . . . . . . . . . . . . . . . . . . . . . . . . . . . . . . . . . . . . ",
". . . . . . . . . . . . . . . . . . . . . . . . . . . . . . . . . . . . . . . . . . . . . . . . ",
". . . . . . . . . . . . . . . . . . . . . . . . . . . . . . . . . . . . . . . . . . . . . . . . ",
". . . . . . . . . . . . . . . . . . . . . . . . . . . . . . . . . . . . . . . . . . . . . . . . ",
". . . . . . . . . . . . . . . . . . . . . . . . . . . . . . . . . . . . . . . . . . . . . . . . ",
". . . . . . . . . . . . . . . . . . . . . . . . . . . . . . . . . . . . . . . . . . . . . . . . ",
". . . . . . . . . . . . . . . . . . . . . . . . . . . . . . . . . . . . . . . . . . . . . . . . ",
". . . . + @ # . . . . . . . . . . . . . . . . . . . . . . . . . . . . . . . . . . . . . . . . . ",
". . . $ % & * = . . . . . . . . . . . . . . . . . . . . . . . . . . . . . . . . . . . . . . . . ",
". . . - ; > , % - . . . . . . . . . . . . . . . . . . . . . . . . . . . . . . . . . . . . . . . ",
". # $ ' ) ! ~ { ] @ . . . . . . . . . . . . . . . . . . . . . . . . . . . . . . . . . . . . . . ",
". ^ / ( _ : < [ ! } # . . . . . . . . . . . . . . . . . . . . . . . . . . . . . . . . . . . . . ",
"| 1 < 2 3 4 5 6 7 8 9 # . . . . . . . . . . . . . . . . . . . . . . . . . . . . . . . . . . . . ",
"# 0 a 6 6 b c 6 6 d e f . . . . . . . . . . # . . . . . . . . . . . . . . . . . . . . . . . . . ",
". ' g 6 6 6 6 6 6 6 h i # . . # = | j - j j f + $ + + j $ @ # . . . . . . . . . . . . . . . . . ",
". k l m 6 b n 6 6 6 > ] | . . | o p q r s s t u v u q u w x + . . . . . . . . . . . . . . . . . ",
". - y m 6 z A B > n 7 C D # . E F G H H G I J K L I M K N u = . . . . . . . . . . . . . . . . . ",
". O P c 6 6 Q R S a T A t = # U V W M I V V I J X L L Y N Z = . . . . . . . . . . . . . . . . . ",
". `  .6 6 6 6 6 6 d ..+.@.$ # ` W L V V V V V I M W K Y N Z = #.# # . . . . . . . . . . . . . . ",
". $.P c 6 6 6 6 6 6 6 %.&.*.= =.G I V V V V V V V L -.;.N Z >.,.'.@ # | = = | @ @ # # . . . . . ",
". ).!.b 6 6 6 6 6 6 6 6 ~.{.@ ].G V V V V V V V V ^./.N N Z (._.:.<.F ] N ; [.}.@.|.1.= # . . . ",
". 2.3.4.b 6 6 6 6 7 7 m 5.6.- ].G I V V I I V V V I J Y N Z 7.8.9.0.a.b.b.d b b b.c.d.e.+ . . . ",
". j f.g.c 6 6 c h.i.< j.k.l.| o V I I M L m.G ^.I I J Y N n.o.p.q.r.6 6 6 6 6 6 6 6 c s.} # . . ",
". @ t.4.6 7 c Q u.& / ;.v.X k ` m.^.L J G ^.G m.M I ] N N w.x.y.z.A.6 6 6 6 6 6 6 6 c B.C.D.# . ",
". = ;.g.6 7 7 %.E.G I I F.X f ^ M m.^.I V V V I M L G.;.N H.I.J.K.6 6 6 6 6 6 6 6 6 6 g...F.+ . ",
". = L.%.6 6 6 a.&.^.V I 6.W M.E G M V V V V V V I W N.O.N I &.B d 6 6 6 6 6 6 6 6 6 6 6 P.Q.R.. ",
". # S.5 6 6 6 c j.W V I L V M.1.I I V V V V V V V G ;.;.Y {.e T.B 7 6 6 6 6 6 6 6 6 6 6 7 U.i . ",
". # V.B 6 6 6 6 W.N.I V ^.t k D.I V V V V V V V V I W N Y % X.* v Y.Z.+.`.a.g.6 n 6 6 6 6 T Z . ",
". # '  +6 6 6 6 3 .+^.I J r + 1.++I V V V V V V V V L ;.N e.D | # 2.@+H.F M #+U.z Q 6 6 6 3 l.= ",
". # $+T.6 6 6 6 6 %+f.&+l r @ *+++V V V V V V V V V H N N Z = . . . i t V.9 =+H.{ 3 m 6 6 g.-.| ",
". # ].< 6 6 6 6 6 c 4 -+;+>+# E l.G V V V V V V V ^.;.;.N u = . . | W m.,+'+'+)+;.T z !+c m ~+{+",
". # ]+^+6 6 6 6 6 6 6 Q .+2.# *+m.W I V V V V V I H / O.N v @ . . $ e 8 ;./+(+@+] S d > 4 5 }.^ ",
". # X.R 6 6 6 6 6 7 4.a.}.{+# E L.L J ^.V V V I L J N G.W @+j . . R.l B.5 _+:+s.^+n 6 6 n -+e.| ",
". @ H <+P.!+5.[+~ }+|+/.q | = D t l.m.M I V I L 6.L X l.@+f # . . = x / }.1+2+n 6 6 6 6 6 ! 3+. ",
". # 2.4+5+V 6+O ].O + = # . # # {+D U O o D.].7+,+/+8+*+j # . . . . . # = {+/+f.9+0+`.b g.y ^ . ",
". . . # # # # . . . . . . . . . . . . . # # # # # j {+# . . . . . . . . . . # + R.E |.a+b+c+| . ",
". . . . . . . . . . . . . . . . . . . . . . . . . . # . . . . . . . . . . . . . . . # = @ + . . ",
". . . . . . . . . . . . . . . . . . . . . . . . . . . . . . . . . . . . . . . . . . . . . . . . ",
". . . . . . . . . . . . . . . . . . . . . . . . . . . . . . . . . . . . . . . . . . . . . . . . ",
". . . . . . . . . . . . . . . . . . . . . . . . . . . . . . . . . . . . . . . . . . . . . . . . ",
". . . . . . . . . . . . . . . . . . . . . . . . . . . . . . . . . . . . . . . . . . . . . . . . ",
". . . . . . . . . . . . . . . . . . . . . . . . . . . . . . . . . . . . . . . . . . . . . . . . ",
". . . . . . . . . . . . . . . . . . . . . . . . . . . . . . . . . . . . . . . . . . . . . . . . ",
". . . . . . . . . . . . . . . . . . . . . . . . . . . . . . . . . . . . . . . . . . . . . . . . ",
". . . . . . . . . . . . . . . . . . . . . . . . . . . . . . . . . . . . . . . . . . . . . . . . ",
". . . . . . . . . . . . . . . . . . . . . . . . . . . . . . . . . . . . . . . . . . . . . . . . ",
". . . . . . . . . . . . . . . . . . . . . . . . . . . . . . . . . . . . . . . . . . . . . . . . "};
